<?xml version="1.0" encoding="UTF-8" standalone="no"?>
<svg
   id="visual"
   viewBox="0 0 133.17551 900"
   width="133.17551"
   height="900"
   version="1.1"
   inkscape:version="1.1.2 (0a00cf5339, 2022-02-04)"
   inkscape:export-xdpi="96"
   inkscape:export-ydpi="96"
   sodipodi:docname="wave.svg"
   xmlns:inkscape="http://www.inkscape.org/namespaces/inkscape"
   xmlns:sodipodi="http://sodipodi.sourceforge.net/DTD/sodipodi-0.dtd"
   xmlns="http://www.w3.org/2000/svg"
   xmlns:svg="http://www.w3.org/2000/svg">
  <defs
     id="defs7" />
  <sodipodi:namedview
     id="namedview5"
     pagecolor="#ffffff"
     bordercolor="#666666"
     borderopacity="1.0"
     inkscape:pageshadow="2"
     inkscape:pageopacity="0.0"
     inkscape:pagecheckerboard="0"
     showgrid="false"
     inkscape:lockguides="false"
     inkscape:zoom="0.79038825"
     inkscape:cx="-68.320854"
     inkscape:cy="504.8152"
     inkscape:window-width="1920"
     inkscape:window-height="1016"
     inkscape:window-x="0"
     inkscape:window-y="27"
     inkscape:window-maximized="1"
     inkscape:current-layer="visual"
     fit-margin-top="0"
     fit-margin-left="0"
     fit-margin-right="0"
     fit-margin-bottom="0"
     units="mm" />
  <path
     d="m 81.999998,-2.1068848e-6 5.7,6.8000000068848 c 5.6,6.9000001 16.999992,20.5000001 8.5,34.2000001 -8.5,13.7 -36.9,27.3 -41.2,41 -4.3,13.7 15.3,27.300002 15.8,41.000002 0.5,13.7 -18.1,27.3 -22.8,41 -4.7,13.7 4.7,27.3 6.2,40.8 1.5,13.5 -4.9,26.9 10.5,40.4 15.3,13.5 52.299992,27.1 54.299992,40.8 2,13.7 -30.999992,27.3 -37.999992,41 -7,13.7 12,27.3 28.799992,41 16.9,13.7 31.5,27.3 18.2,41 -13.3,13.7 -54.699992,27.3 -69.199992,41 -14.5,13.7 -2.1,27.3 10.2,41 12.3,13.7 24.7,27.3 27.3,41 2.7,13.7 -4.3,27.3 0.5,41 4.899992,13.7 21.499992,27.3 27.899992,41 6.3,13.7 2.3,27.3 -9.4,40.8 -11.6,13.5 -30.999992,26.9 -24.599992,40.4 6.3,13.5 38.299992,27.1 33.299992,40.8 -5,13.7 -46.999992,27.3 -60.199992,41 -13.1,13.7 2.5,27.3 23.9,41 21.299992,13.7 48.299992,27.3 43.299992,41 -5,13.7 -41.999992,27.3 -60.499992,34.2 l -18.5,6.8 H -2.1068849e-6 v -6.8 c 0,-6.9 0,-20.5 0,-34.2 0,-13.7 0,-27.3 0,-41 0,-13.7 0,-27.3 0,-41 0,-13.7 0,-27.3 0,-41 0,-13.7 0,-27.3 0,-40.8 0,-13.5 0,-26.9 0,-40.4 0,-13.5 0,-27.1 0,-40.8 0,-13.7 0,-27.3 0,-41 0,-13.7 0,-27.3 0,-41 0,-13.7 0,-27.3 0,-41 0,-13.7 0,-27.3 0,-41 0,-13.7 0,-27.3 0,-41 0,-13.7 0,-27.3 0,-41 0,-13.7 0,-27.3 0,-41 0,-13.7 0,-27.3 0,-41 0,-13.7 0,-27.3 0,-40.8 0,-13.5 0,-26.9 0,-40.4 0,-13.5 0,-27.1 0,-40.8 0,-13.7 0,-27.3 0,-41 0,-13.7 0,-27.300002 0,-41.000002 0,-13.7 0,-27.3 0,-41 0,-13.7 0,-27.3 0,-34.2000001 V -2.1068848e-6 Z"
     fill="#ffffff"
     stroke-linecap="round"
     stroke-linejoin="miter"
     id="path2"
     style="fill:#ffffff;fill-opacity:0.989836"
     inkscape:export-xdpi="96"
     inkscape:export-ydpi="96" />
</svg>
