<?xml version="1.0" encoding="UTF-8" standalone="no"?>
<svg
   id="visual"
   viewBox="0 0 900.00002 133.17551"
   width="900"
   height="133.17551"
   version="1.1"
   inkscape:version="1.1.2 (0a00cf5339, 2022-02-04)"
   inkscape:export-xdpi="96"
   inkscape:export-ydpi="96"
   sodipodi:docname="wave-vert.svg"
   xmlns:inkscape="http://www.inkscape.org/namespaces/inkscape"
   xmlns:sodipodi="http://sodipodi.sourceforge.net/DTD/sodipodi-0.dtd"
   xmlns="http://www.w3.org/2000/svg"
   xmlns:svg="http://www.w3.org/2000/svg">
  <defs
     id="defs7" />
  <sodipodi:namedview
     id="namedview5"
     pagecolor="#ffffff"
     bordercolor="#666666"
     borderopacity="1.0"
     inkscape:pageshadow="2"
     inkscape:pageopacity="0.0"
     inkscape:pagecheckerboard="0"
     showgrid="false"
     inkscape:lockguides="false"
     inkscape:zoom="1.1177778"
     inkscape:cx="449.99999"
     inkscape:cy="254.07554"
     inkscape:window-width="1920"
     inkscape:window-height="1016"
     inkscape:window-x="0"
     inkscape:window-y="27"
     inkscape:window-maximized="1"
     inkscape:current-layer="visual"
     fit-margin-top="0"
     fit-margin-left="0"
     fit-margin-right="0"
     fit-margin-bottom="0" />
  <path
     d="m 900,81.999996 -6.8,5.7 c -6.9,5.6 -20.5,17.000004 -34.2,8.5 -13.7,-8.5 -27.3,-36.9 -41,-41.2 -13.7,-4.3 -27.3,15.3 -41,15.8 -13.7,0.5 -27.3,-18.1 -41,-22.8 -13.7,-4.7 -27.3,4.7 -40.8,6.2 -13.5,1.5 -26.9,-4.9 -40.4,10.5 C 641.3,79.999996 627.7,117 614,119 c -13.7,2 -27.3,-31.000004 -41,-38.000004 -13.7,-7 -27.3,12 -41,28.800004 -13.7,16.9 -27.3,31.5 -41,18.2 -13.7,-13.3 -27.3,-54.700004 -41,-69.200004 -13.7,-14.5 -27.3,-2.1 -41,10.2 -13.7,12.3 -27.3,24.7 -41,27.3 -13.7,2.7 -27.3,-4.3 -41,0.5 C 313.3,101.7 299.7,118.3 286,124.7 272.3,131 258.7,127 245.2,115.3 231.7,103.7 218.3,84.299996 204.8,90.699996 191.3,96.999996 177.7,129 164,124 150.3,119 136.7,76.999996 123,63.799996 c -13.7,-13.1 -27.3,2.5 -41,23.9 C 68.3,109 54.7,136 41,131 27.3,126 13.7,88.999996 6.8,70.499996 l -6.8,-18.5 V -1.78118e-8 h 6.8 c 6.9,0 20.5,0 34.2,0 13.7,0 27.3,0 41,0 13.7,0 27.3,0 41,0 13.7,0 27.3,0 41,0 13.7,0 27.3,0 40.8,0 13.5,0 26.9,0 40.4,0 13.5,0 27.1,0 40.8,0 13.7,0 27.3,0 41,0 13.7,0 27.3,0 41,0 13.7,0 27.3,0 41,0 13.7,0 27.3,0 41,0 13.7,0 27.3,0 41,0 13.7,0 27.3,0 41,0 13.7,0 27.3,0 41,0 13.7,0 27.3,0 41,0 13.7,0 27.3,0 40.8,0 13.5,0 26.9,0 40.4,0 13.5,0 27.1,0 40.8,0 13.7,0 27.3,0 41,0 13.7,0 27.3,0 41,0 13.7,0 27.3,0 41,0 13.7,0 27.3,0 34.2,0 h 6.8 z"
     fill="#ffffff"
     stroke-linecap="round"
     stroke-linejoin="miter"
     id="path2"
     style="fill:#ffffff;fill-opacity:0.989836"
     inkscape:export-xdpi="96"
     inkscape:export-ydpi="96" />
</svg>
